<svg xmlns="http://www.w3.org/2000/svg" viewBox="0 0 581.74 216.03"><defs><style>.cls-1{fill:#00c5ff;}.cls-2{fill:#000898;}</style></defs><g id="Layer_2" data-name="Layer 2"><g id="Layer_1-2" data-name="Layer 1"><path class="cls-1" d="M574,37.29v0c-.44-.62-.9-1.23-1.37-1.83v0a55.47,55.47,0,0,0-5-5.64h0A57.6,57.6,0,0,0,555.81,21a62.56,62.56,0,0,0-13.28-5.67h0c-18-5.35-39-3.18-57.76,7.62s-31.1,27.94-35.45,46.19a31.37,31.37,0,0,1-2.65-9.37,72.94,72.94,0,0,1,89.07-51.4A66.94,66.94,0,0,1,551,14.65a44.51,44.51,0,0,0-13.74-10,70.26,70.26,0,0,0-40.3-3c-.48.1-.95.21-1.43.33l-1,.25-1.17.32c-1.12.3-2.23.65-3.34,1-.55.18-1.11.37-1.66.57l-1.65.62c-.55.22-1.09.43-1.64.67L483.66,6c-.4.17-.77.34-1.16.53a1.21,1.21,0,0,1-.2.09c-.33.16-.66.31-1,.48l-.37.17-.31.16-.23.12-.21.1h0l-.38.2-.3.16-.17.09,0,0-.26.14a2.15,2.15,0,0,0-.26.14l-.21.1-.17.11q-.7.38-1.41.78l-1.39.83-.17.1-.2.12-.25.16-.25.16,0,0-.16.1a2.82,2.82,0,0,1-.29.18l-.36.23,0,0-.19.13-.22.14c-.09.06-.18.11-.27.18h0l0,0-.14.09,0,0-.31.21-.2.14c-.18.12-.37.24-.54.37l-.13.09-1.07.77c-.41.29-.8.59-1.19.88s-.93.73-1.4,1.09l-1.36,1.12-1.33,1.15c-.44.38-.87.78-1.29,1.18s-.71.66-1.06,1-.71.68-1.06,1l-.75.78a70.23,70.23,0,0,0-18.55,37.47,44.32,44.32,0,0,0,1.79,16.9v0h0a41.1,41.1,0,0,0,3.07,7.3c.2.38.42.77.63,1.15a41,41,0,0,0,5.52,7.47,43.28,43.28,0,0,0,8.46,7.08,49.94,49.94,0,0,0,13.74,6c15.72,4.32,34.68,2,51.79-7.92s28.64-25.11,32.76-40.9a34.22,34.22,0,0,1,7.92,5.76c-4.8,16.9-17.35,33.12-35.72,43.72S494,119.23,476.94,115A55.76,55.76,0,0,1,464.08,110a48.71,48.71,0,0,1-9.43-6.52A46.18,46.18,0,0,1,449.34,98h0c-.74-.9-1.45-1.83-2.11-2.8h0c-.7-1-1.36-2-2-3.1a69.42,69.42,0,0,0,3.3,8.29,19.69,19.69,0,0,0,1.77,3h0c.45.63.89,1.22,1.36,1.82h0a52.71,52.71,0,0,0,5.07,5.67,57.6,57.6,0,0,0,11.69,8.8h0a61.62,61.62,0,0,0,13.32,5.68c18,5.35,39,3.18,57.73-7.61S570.62,89.8,575,71.55a31.85,31.85,0,0,1,2.64,9.34s0,0,0,0a72.94,72.94,0,0,1-89.06,51.42A66.79,66.79,0,0,1,473.29,126,44.63,44.63,0,0,0,487,136h0a70.16,70.16,0,0,0,39.24,3.2l1.17-.24c.43-.09.87-.2,1.31-.31s.7-.17,1-.25l.19-.06c.42-.1.84-.21,1.25-.33l1.41-.42.83-.26c.28-.08.56-.17.83-.27.56-.18,1.11-.37,1.66-.57l1.55-.58.1,0,1.39-.57a1.09,1.09,0,0,0,.25-.1c.37-.15.74-.3,1.11-.47l.26-.11.55-.25.16-.07c.36-.16.71-.34,1.08-.51s.82-.39,1.22-.6l.13-.06.11-.07h0L544,133h.07l.38-.2.3-.16.17-.09,0,0,.27-.14a2,2,0,0,0,.25-.14l.09-.05a.19.19,0,0,0,.08,0l.21-.13c.47-.25.94-.51,1.41-.79l1.39-.82.19-.11.07,0h0l.09,0,.25-.16.25-.16,0,0,.16-.1.29-.18.36-.23,0,0h0l.12-.07h0l.11-.07a.42.42,0,0,0,.12-.08c.38-.24.76-.49,1.13-.76s.66-.45,1-.68l.14-.1.49-.36.23-.16,1-.72c.48-.36.94-.73,1.4-1.09l.09-.07c.43-.34.85-.7,1.28-1l0,0c.27-.23.54-.45.81-.69l.49-.43c.87-.77,1.73-1.57,2.55-2.38l.86-.86c.25-.26.51-.51.75-.78s.62-.65.92-1l.87-1a70.17,70.17,0,0,0,16.77-35.5v0a44.61,44.61,0,0,0-1.8-16.84s0,0,0,0a40.65,40.65,0,0,0-3.07-7.33h0L576.08,56a41.56,41.56,0,0,0-5.51-7.47,43.52,43.52,0,0,0-8.47-7.08,50.25,50.25,0,0,0-13.72-6c-15.72-4.32-34.7-2-51.81,7.92s-28.64,25.11-32.75,40.89a33.78,33.78,0,0,1-7.93-5.76c4.81-16.89,17.37-33.1,35.73-43.71s38.7-13.36,55.73-9.08a55.66,55.66,0,0,1,12.85,4.91,48.41,48.41,0,0,1,9.43,6.52A45.61,45.61,0,0,1,575,42.66c.74.9,1.44,1.84,2.11,2.82l0,0c.68,1,1.33,2,1.94,3.07a69.7,69.7,0,0,0-3.3-8.31A19.4,19.4,0,0,0,574,37.29ZM506.48,60.52c12.53-7.24,26.07-10.08,38-8.84-4.87,10.91-14.11,21.22-26.64,28.45s-26.06,10.08-38,8.84C484.72,78.05,494,67.75,506.48,60.52Z"/><path class="cls-2" d="M561.41,92.51h0a6.31,6.31,0,0,1-.52,7.14,77.44,77.44,0,0,1-21.37,18.1c-18.69,10.8-39.75,13-57.73,7.61a61.62,61.62,0,0,1-13.32-5.68h0a57.6,57.6,0,0,1-11.69-8.8,52.71,52.71,0,0,1-5.07-5.67h0c-.47-.59-.91-1.19-1.36-1.82h0a20.54,20.54,0,0,1-1.77-3,67.78,67.78,0,0,1-3.3-8.29c.61,1.07,1.27,2.11,2,3.1h0c.66,1,1.37,1.9,2.11,2.8h0a46.18,46.18,0,0,0,5.31,5.52,48.71,48.71,0,0,0,9.43,6.52A55.76,55.76,0,0,0,476.94,115c17,4.27,37.36,1.52,55.72-9.09a83.05,83.05,0,0,0,18.58-14.52A6.38,6.38,0,0,1,561.41,92.51Z"/><path class="cls-2" d="M535,81.51a9.88,9.88,0,0,1-3.06,13.17q-2,1.36-4.2,2.61c-17.11,9.88-36.07,12.24-51.79,7.92a49.94,49.94,0,0,1-13.74-6,43.28,43.28,0,0,1-8.46-7.08,41,41,0,0,1-5.52-7.47c-.21-.38-.43-.77-.63-1.15a40.46,40.46,0,0,1-3.07-7.33,44.52,44.52,0,0,1-1.8-16.9,50.77,50.77,0,0,1,3-11.93,70.36,70.36,0,0,1,5.1-11.38,65.21,65.21,0,0,1,9.28-12.86,58.18,58.18,0,0,0-10.78,17.42c-3.05,8-4,17.24-1.22,25.49a32.06,32.06,0,0,0,1.23,3.12,29,29,0,0,0,1.37,2.66,30.78,30.78,0,0,0,5.22,6.73,33.5,33.5,0,0,0,7.93,5.76,43.14,43.14,0,0,0,16,4.72c11.9,1.24,25.43-1.6,38-8.84,1.12-.65,2.22-1.32,3.29-2A9.86,9.86,0,0,1,535,81.51Z"/><path class="cls-2" d="M543.7,125c1.77-1,3.48-2.11,5.14-3.25a3.55,3.55,0,0,1,5.1,1.11h0a3.55,3.55,0,0,1-1,4.67A70.93,70.93,0,0,1,487,136h0a44.71,44.71,0,0,1-13.69-10,66.79,66.79,0,0,0,15.28,6.31A71.88,71.88,0,0,0,543.7,125Z"/><path class="cls-2" d="M576.08,56l.64,1.16a40.24,40.24,0,0,1,3.07,7.35,44.61,44.61,0,0,1,1.8,16.84v0a70.17,70.17,0,0,1-16.77,35.5,56.72,56.72,0,0,0,9.61-15.21A42.29,42.29,0,0,0,577.88,84c0-1.05-.12-2.09-.25-3.15A32,32,0,0,0,575,71.54c-.41-.9-.86-1.78-1.36-2.65a31.17,31.17,0,0,0-5.24-6.74,34.22,34.22,0,0,0-7.92-5.76,43.31,43.31,0,0,0-16-4.71c-11.89-1.24-25.43,1.6-38,8.84q-2,1.17-3.93,2.44A9.89,9.89,0,1,1,491.4,46.63q2.49-1.73,5.17-3.27c17.11-9.88,36.08-12.24,51.81-7.92a50.25,50.25,0,0,1,13.72,6,43.17,43.17,0,0,1,8.46,7.08A41.13,41.13,0,0,1,576.08,56Z"/><path class="cls-2" d="M575.72,40.27a69.56,69.56,0,0,1,3.3,8.3c-.61-1.06-1.26-2.08-1.94-3.07l0,0c-.67-1-1.37-1.92-2.12-2.82a45.53,45.53,0,0,0-5.31-5.53,48.41,48.41,0,0,0-9.43-6.52,55.66,55.66,0,0,0-12.85-4.91c-17-4.28-37.36-1.52-55.73,9.08a83.28,83.28,0,0,0-19,15,6.35,6.35,0,0,1-10.15-1.13h0a6.28,6.28,0,0,1,.49-7.08,77.52,77.52,0,0,1,21.8-18.63c18.71-10.8,39.77-13,57.76-7.62h0A62.42,62.42,0,0,1,555.81,21a57.6,57.6,0,0,1,11.69,8.8h0a55.47,55.47,0,0,1,5,5.64v0c.47.6.93,1.21,1.37,1.83v0A19.49,19.49,0,0,1,575.72,40.27Z"/><path class="cls-2" d="M551,14.65a66.94,66.94,0,0,0-15.27-6.32,72,72,0,0,0-55.15,7.34,73.38,73.38,0,0,0-7.09,4.65,3.54,3.54,0,0,1-5.2-1.05h0a3.53,3.53,0,0,1,.91-4.58,71.07,71.07,0,0,1,68.06-10A44.51,44.51,0,0,1,551,14.65Z"/><path class="cls-2" d="M269.83,145.06a38.28,38.28,0,0,1,4,7c7.23,16.82,1.73,38.25-12.14,50.09-9.69,8.27-25.3,11.25-45,11.25h-68.5V54.31H216.9c18.43,0,31,1.17,40.84,8.6,7.75,5.83,13.67,14.45,15.52,24,2.12,11.06-1.43,20.08-6.86,29.4-3.53,6.06-9.56,10.25-15.89,13.73,1.21-.66,6.68,3,7.77,3.7a39.14,39.14,0,0,1,6.6,5.44A47.86,47.86,0,0,1,269.83,145.06ZM182.9,82V118.1h29.41q13,0,19.66-4.78c4.46-3.18,6.69-6.43,6.69-12.64s-2.23-10.87-6.69-14S221,82,212.31,82Zm51.81,98.87q7-4.77,7-14.78,0-19.77-27.86-19.77h-31v39.32h31Q227.69,185.68,234.71,180.91Z"/><path class="cls-2" d="M315.53,211l-.15,0a124.78,124.78,0,0,1-15.67-5.69c-1.11-.5-13.39-6.49-12.88-7.52L300.5,170a79.14,79.14,0,0,0,23.1,12.05c12.43,4.22,28.55,7.12,41.23,2.52,4.28-1.55,8.37-4.3,10.3-8.42a19,19,0,0,0,1.42-8.56,14.87,14.87,0,0,0-1.53-6.91,14.39,14.39,0,0,0-4.17-4.31,38.31,38.31,0,0,0-10.75-5.48c-11.56-3.8-23.63-6-35-10.34-16.94-6.43-33.45-19.78-33.45-39.42,0-14.83,6.12-28.35,17.91-37.18,11-8.23,24.9-11.7,38.55-12.18A91.48,91.48,0,0,1,380.71,57a120.66,120.66,0,0,1,15.15,6.41c1,.52,13.65,7.26,13.29,8L394.33,98.42C393.66,98,372,85.24,369.64,84.26c-8.93-3.7-19.11-4-28.59-2.84-7.71,1-14.21,5.73-14.91,13.86a12.93,12.93,0,0,0,1.69,6.74c3.29,5.86,12.95,8.74,18.83,10.77,8.24,2.83,16.84,4.35,25.25,6.57,16.17,4.27,31.56,12.92,38.07,29.19,5.14,12.86,3.52,27.34-3.44,39.2-7.65,13.05-20.47,21-34.79,25.09a85.2,85.2,0,0,1-21.7,3.17A114.12,114.12,0,0,1,315.53,211Z"/><path class="cls-2" d="M0,54.31H34.77a0,0,0,0,1,0,0V200.6A12.81,12.81,0,0,1,22,213.41H0a0,0,0,0,1,0,0V54.31A0,0,0,0,1,0,54.31Z"/><path class="cls-2" d="M133.63,213.41H101a18.41,18.41,0,0,1-15.15-7.95L51.93,156.3l-1.87-2.71a36.78,36.78,0,0,1,1.24-43.48l5.82-7.47L73,82.19A35.33,35.33,0,0,0,71.86,124l2.47,3.58Z"/><path class="cls-1" d="M131.37,54.31l-57,73.24L71.86,124A35.33,35.33,0,0,1,73,82.19h0l21.7-27.87Z"/></g></g></svg>