<svg xmlns="http://www.w3.org/2000/svg" viewBox="0 0 1992.71 536.97"><defs><style>.cls-1{fill:#f60;fill-rule:evenodd;}</style></defs><g id="레이어_2" data-name="레이어 2"><g id="svg849"><g id="g847"><path id="path868" class="cls-1" d="M534,0c-17.79,0-33.64,9.34-44,19.7L338.49,166.83V341.58c0,14.33,6.08,21,20.53,6.27L486.64,224.21V537H649V0ZM743.26,0V537h456.49c84.77-.66,139.87-68.32,143.36-133.7,2.76-51.78-23.9-113.71-86.73-141.14C1367.79,188,1326.49,8.1,1180.73,0ZM1415,0V537h161.49V245.83L1799.5,504c18.85,20.93,26.25,33,56,33h137.23V0H1831.09V290.85L1597.92,21.73c-9.41-10.89-22-21.73-44.8-21.73ZM0,0V537H162.37V224.21L290,347.85c14.44,14.69,20.53,8.06,20.53-6.26V166.83L159,19.7C148.61,9.34,132.77,0,115,0ZM905,112.75h189.84c20.33,0,40.59,22.68,40.13,44.05-.47,22-17.88,44-40.13,44H905Zm0,211.88h203.34c31.93,0,49,26,49,49.55,0,23.86-19.06,50.47-49,50.47H905Z"/></g></g></g></svg>